<svg width="361" height="278" viewBox="0 0 361 278" fill="none" xmlns="http://www.w3.org/2000/svg">
<path d="M164.456 277.232C91.7971 279.446 26.0911 232.729 5.83578 162.913C-3.71734 129.984 -2.20767 95.7391 15.3385 68.6313C52.6787 10.9687 102.457 94.9003 148.898 52.6116C220.332 -12.4402 336.068 -24.2663 351.384 57.7363C366.699 139.747 368.536 221.28 320.351 250.183C297.546 263.871 209.479 275.856 164.456 277.232Z" fill="#FCFCE6"/>
<path d="M106.974 266.32L195.896 254.813C200.87 254.167 204.376 249.621 203.73 244.647L181.076 69.6297C180.43 64.656 175.884 61.1501 170.911 61.796L81.9885 73.3033C77.0149 73.9491 73.509 78.495 74.1548 83.4687L96.8089 258.486C97.4547 263.452 102.001 266.966 106.974 266.32Z" fill="white" stroke="black" stroke-width="1.2112" stroke-miterlimit="10" stroke-linecap="round" stroke-linejoin="round"/>
<path d="M158.695 243.154L158.46 241.326C158.276 239.867 157.034 238.818 155.692 238.994L139.245 241.15C137.903 241.326 136.964 242.66 137.148 244.119L137.383 245.947C137.567 247.407 138.809 248.455 140.151 248.279L156.598 246.123C157.94 245.947 158.88 244.614 158.695 243.154ZM156.481 245.209L140.033 247.365C139.153 247.482 138.339 246.794 138.222 245.838L137.987 244.01C137.869 243.054 138.482 242.181 139.362 242.064L155.81 239.909C156.691 239.791 157.504 240.479 157.621 241.435L157.856 243.263C157.982 244.22 157.361 245.092 156.481 245.209Z" fill="black"/>
<path d="M101.691 180.661L176.656 171.451C178.443 171.233 179.718 169.606 179.5 167.82L173.293 117.27C173.075 115.483 171.448 114.208 169.661 114.426L94.6957 123.635C92.9092 123.854 91.6343 125.481 91.8524 127.267L98.059 177.817C98.277 179.612 99.9042 180.879 101.691 180.661Z" fill="#FECC32"/>
<path d="M171.522 187.135L161.332 188.301L140.967 190.725L120.62 193.3L110.454 194.642L100.289 196.043L110.488 194.944L120.679 193.787L141.043 191.363L161.39 188.788L171.556 187.446L181.721 186.045L171.522 187.135Z" fill="#ECECEC"/>
<path d="M121.591 202.66L152.675 198.601C152.952 198.567 153.153 198.307 153.111 198.03C153.077 197.754 152.817 197.561 152.541 197.594L121.457 201.654C121.181 201.687 120.979 201.947 121.021 202.224C121.055 202.484 121.273 202.669 121.524 202.669C121.55 202.66 121.566 202.66 121.591 202.66Z" fill="black"/>
<path d="M121.935 205.386L153.019 201.327C153.295 201.293 153.497 201.033 153.455 200.756C153.421 200.479 153.161 200.295 152.884 200.32L121.801 204.38C121.524 204.413 121.323 204.673 121.365 204.95C121.398 205.21 121.617 205.394 121.868 205.394C121.893 205.394 121.91 205.394 121.935 205.386Z" fill="black"/>
<path d="M160.732 202.283L122.159 207.106C121.882 207.139 121.681 207.391 121.715 207.676C121.748 207.936 121.966 208.12 122.218 208.12C122.235 208.12 122.26 208.12 122.285 208.12L160.858 203.298C161.135 203.264 161.336 203.013 161.303 202.727C161.269 202.451 161.017 202.249 160.732 202.283Z" fill="black"/>
<path d="M113.61 201.545C112.369 200.983 110.994 200.941 109.719 201.427C108.444 201.905 107.437 202.853 106.884 204.094C106.322 205.336 106.28 206.711 106.766 207.986C107.244 209.244 108.175 210.242 109.392 210.804C110.071 211.115 110.792 211.274 111.514 211.274C112.118 211.274 112.73 211.165 113.317 210.939C113.82 210.746 114.281 210.486 114.701 210.15C116.429 208.766 117.058 206.451 116.278 204.38C115.8 203.113 114.852 202.107 113.61 201.545ZM114.063 209.353C113.728 209.622 113.359 209.831 112.956 209.982C111.925 210.368 110.809 210.335 109.811 209.873C108.838 209.42 108.092 208.624 107.706 207.617C107.32 206.602 107.354 205.495 107.798 204.505C108.243 203.516 109.048 202.761 110.071 202.375C110.541 202.199 111.027 202.107 111.514 202.107C112.084 202.107 112.654 202.224 113.183 202.467C114.172 202.912 114.936 203.725 115.313 204.74C115.95 206.401 115.447 208.255 114.063 209.353Z" fill="black"/>
<path d="M132.407 169.95C131.996 169.95 131.585 169.908 131.174 169.816C128.155 169.17 126.083 166.293 125.068 164.507C124.523 165.89 123.458 167.794 121.571 168.44C118.526 169.489 114.374 164.498 113.913 163.928C113.896 163.903 113.88 163.878 113.863 163.852C113.62 163.433 107.79 153.637 106.532 151.146C106.398 150.877 106.272 150.651 106.163 150.449C105.039 148.386 105.232 148.084 108.419 142.976C111.783 137.6 117.167 132.023 120.304 130.639C122.183 128.232 126.83 126.621 128.851 126.89C129.446 126.965 130.218 127.15 131.023 127.343C132.382 127.67 134.068 128.072 134.848 127.896C135.401 127.77 135.67 127.619 136.215 127.326C136.844 126.982 137.8 126.462 139.788 125.657C143.772 124.055 147.89 125.455 150.104 127.46C151.648 127.988 155.875 130.203 161.872 135.277C168.053 140.494 166.241 144.645 166.158 144.822C166.132 144.889 162.35 154.366 158.777 159.986C157.032 162.728 155.204 164.179 153.35 164.297C152.151 164.372 150.96 163.886 149.878 162.871C148.544 166.142 146.9 168.088 144.854 168.826C142.396 169.707 139.863 168.642 137.85 167.501C136.014 169.128 134.194 169.95 132.407 169.95ZM124.934 162.2C125.186 162.2 125.421 162.351 125.521 162.586C125.546 162.636 127.744 167.786 131.443 168.574C133.296 168.969 135.276 168.189 137.33 166.26C137.532 166.067 137.842 166.033 138.085 166.176C140.803 167.786 142.757 168.231 144.418 167.635C146.246 166.981 147.806 164.909 149.039 161.496C149.115 161.286 149.299 161.126 149.526 161.085C149.752 161.043 149.978 161.127 150.121 161.303C151.136 162.519 152.193 163.089 153.258 163.039C154.684 162.947 156.177 161.688 157.695 159.306C161.209 153.788 164.941 144.419 164.983 144.327C165.059 144.159 166.434 140.796 161.041 136.241C154.776 130.949 150.641 128.944 149.576 128.626C149.484 128.601 149.4 128.55 149.324 128.483C147.42 126.697 143.772 125.413 140.241 126.831C138.32 127.603 137.406 128.106 136.802 128.433C136.215 128.752 135.829 128.961 135.108 129.129C134.043 129.364 132.348 128.961 130.713 128.567C129.933 128.383 129.203 128.206 128.675 128.139C127.165 127.946 122.753 129.389 121.21 131.519C121.143 131.62 121.042 131.696 120.933 131.737C118.4 132.752 113.074 137.894 109.485 143.639C106.499 148.42 106.499 148.42 107.262 149.837C107.379 150.055 107.514 150.29 107.648 150.575C108.847 152.949 114.5 162.468 114.92 163.165C116.463 165.06 119.491 167.82 121.151 167.241C123.5 166.436 124.297 162.737 124.305 162.695C124.364 162.427 124.59 162.225 124.867 162.192C124.892 162.2 124.917 162.2 124.934 162.2Z" fill="black"/>
<path d="M124.764 162.779C124.738 162.779 124.705 162.779 124.68 162.77C124.336 162.72 124.093 162.401 124.135 162.057C124.529 159.155 122.231 148.411 120.889 144.151C119.681 140.334 119.253 135.755 119.983 134.555C120.276 134.069 120.385 132.467 120.377 131.477C120.369 131.125 120.654 130.84 120.998 130.84H121.006C121.35 130.84 121.635 131.117 121.635 131.469C121.644 131.93 121.644 134.262 121.056 135.218C120.729 135.755 120.788 139.647 122.088 143.782C123.262 147.489 125.846 158.879 125.384 162.234C125.351 162.552 125.074 162.779 124.764 162.779Z" fill="black"/>
<path d="M150.037 161.16C150.028 161.16 150.02 161.16 150.003 161.16C149.651 161.143 149.382 160.85 149.399 160.497C149.408 160.288 150.372 139.613 150.146 134.472C149.122 130.991 149.525 128.433 149.542 128.324C149.6 127.98 149.919 127.745 150.263 127.804C150.607 127.862 150.842 128.181 150.783 128.525C150.783 128.55 150.414 130.966 151.37 134.186C151.387 134.237 151.395 134.287 151.395 134.337C151.639 139.412 150.691 159.701 150.649 160.556C150.649 160.892 150.372 161.16 150.037 161.16Z" fill="black"/>
<path d="M130.058 145.61C131.026 145.61 131.811 144.825 131.811 143.857C131.811 142.889 131.026 142.104 130.058 142.104C129.09 142.104 128.305 142.889 128.305 143.857C128.305 144.825 129.09 145.61 130.058 145.61Z" fill="black"/>
<path d="M142.526 144.15C143.494 144.15 144.279 143.365 144.279 142.397C144.279 141.429 143.494 140.644 142.526 140.644C141.558 140.644 140.773 141.429 140.773 142.397C140.773 143.365 141.558 144.15 142.526 144.15Z" fill="black"/>
<path d="M133.172 161.596L135.504 164.968C136.016 165.706 136.896 166.1 137.785 165.999L137.936 165.983C138.783 165.882 139.521 165.345 139.865 164.574L141.593 160.749C142.054 159.726 141.962 158.501 141.258 157.621C140.629 156.832 139.622 156.354 138.507 156.48L135.286 156.84C134.623 156.916 134.045 157.184 133.592 157.587C132.443 158.585 132.3 160.338 133.172 161.596Z" fill="black"/>
<path d="M110.349 110.996L141.433 106.936C141.709 106.903 141.911 106.643 141.869 106.366C141.835 106.089 141.575 105.896 141.298 105.93L110.215 109.989C109.938 110.023 109.737 110.283 109.779 110.56C109.813 110.82 110.031 111.004 110.282 111.004C110.307 111.004 110.333 110.996 110.349 110.996Z" fill="black"/>
<path d="M110.701 113.73L141.784 109.671C142.061 109.637 142.262 109.377 142.22 109.1C142.187 108.823 141.927 108.639 141.65 108.664L110.567 112.724C110.29 112.757 110.089 113.017 110.131 113.294C110.164 113.554 110.382 113.738 110.634 113.738C110.651 113.73 110.676 113.73 110.701 113.73Z" fill="black"/>
<path d="M149.49 110.627L110.917 115.449C110.64 115.483 110.439 115.735 110.472 116.02C110.506 116.28 110.724 116.464 110.976 116.464C110.992 116.464 111.018 116.464 111.043 116.464L149.616 111.642C149.893 111.608 150.094 111.356 150.06 111.071C150.027 110.786 149.775 110.585 149.49 110.627Z" fill="black"/>
<path d="M102.376 109.889C101.134 109.327 99.7589 109.285 98.484 109.771C95.8588 110.761 94.5336 113.705 95.5233 116.33C96.0014 117.588 96.9324 118.586 98.1486 119.148C98.8279 119.458 99.5492 119.618 100.271 119.618C100.874 119.618 101.487 119.509 102.074 119.282C102.577 119.089 103.038 118.829 103.458 118.494C105.185 117.11 105.815 114.795 105.035 112.723C104.556 111.449 103.609 110.442 102.376 109.889ZM102.829 117.697C102.493 117.966 102.124 118.175 101.722 118.326C100.69 118.712 99.5744 118.678 98.5763 118.217C97.6034 117.764 96.8569 116.967 96.4711 115.961C95.6743 113.864 96.7395 111.507 98.8363 110.711C99.306 110.534 99.7925 110.442 100.279 110.442C100.849 110.442 101.411 110.56 101.948 110.803C102.938 111.247 103.693 112.061 104.078 113.076C104.716 114.736 104.204 116.59 102.829 117.697Z" fill="black"/>
<path d="M158.493 179.57L119.92 184.393C119.693 184.418 119.525 184.628 119.559 184.863C119.584 185.072 119.769 185.232 119.978 185.232C119.995 185.232 120.012 185.232 120.029 185.232L158.602 180.409C158.828 180.384 158.996 180.174 158.962 179.939C158.937 179.696 158.719 179.537 158.493 179.57Z" fill="black"/>
<path d="M106.407 183.605C105.082 184.099 104.419 185.584 104.914 186.901C105.3 187.924 106.281 188.561 107.313 188.561C107.615 188.561 107.917 188.511 108.21 188.394C109.535 187.899 110.198 186.414 109.703 185.097C109.208 183.781 107.732 183.11 106.407 183.605ZM107.925 187.614C107.036 187.949 106.038 187.496 105.702 186.607C105.367 185.718 105.82 184.72 106.709 184.385C106.91 184.309 107.111 184.276 107.313 184.276C108.009 184.276 108.663 184.703 108.923 185.391C109.258 186.288 108.806 187.278 107.925 187.614Z" fill="black"/>
<path d="M114.189 183.017C113.568 182.732 112.872 182.716 112.226 182.959C110.909 183.454 110.238 184.938 110.733 186.255C110.976 186.892 111.454 187.404 112.075 187.681C112.411 187.832 112.771 187.907 113.132 187.907C113.434 187.907 113.744 187.849 114.038 187.739C114.675 187.496 115.187 187.018 115.464 186.398C115.749 185.777 115.766 185.081 115.522 184.435C115.287 183.806 114.809 183.303 114.189 183.017ZM114.7 186.062C114.507 186.481 114.172 186.8 113.736 186.968C113.308 187.127 112.838 187.119 112.419 186.926C112 186.733 111.681 186.398 111.513 185.961C111.178 185.072 111.631 184.074 112.52 183.739C112.721 183.663 112.922 183.63 113.132 183.63C113.375 183.63 113.61 183.68 113.836 183.781C114.256 183.974 114.575 184.309 114.742 184.745C114.902 185.173 114.893 185.643 114.7 186.062Z" fill="black"/>
<path d="M52.0438 144.603C43.9584 144.603 37.3828 151.179 37.3828 159.264C37.3828 167.35 43.9584 173.925 52.0438 173.925C60.1291 173.925 66.7048 167.35 66.7048 159.264C66.7048 151.179 60.1291 144.603 52.0438 144.603Z" fill="#FDFDFD"/>
<path d="M52.0438 144.603C43.9584 144.603 37.3828 151.179 37.3828 159.264C37.3828 167.35 43.9584 173.925 52.0438 173.925C60.1291 173.925 66.7048 167.35 66.7048 159.264C66.7048 151.179 60.1291 144.603 52.0438 144.603Z" stroke="black" stroke-width="1.4447" stroke-miterlimit="10" stroke-linecap="round" stroke-linejoin="round"/>
<path fill-rule="evenodd" clip-rule="evenodd" d="M61.0146 158.887C60.8972 154.383 57.19 150.768 52.6273 150.768C48.1149 150.768 44.4413 154.299 44.2484 158.728C44.2484 158.853 44.24 158.971 44.24 159.097C44.24 160.673 44.6761 162.141 45.4394 163.399L43.9297 167.87L48.5762 166.394C49.7756 167.056 51.1595 167.434 52.6273 167.434C57.2655 167.434 61.0146 163.71 61.0146 159.105C61.023 159.03 61.023 158.954 61.0146 158.887ZM52.6273 166.1C51.1931 166.1 49.8595 165.672 48.744 164.943L46.0349 165.806L46.9156 163.206C46.0684 162.049 45.5736 160.632 45.5736 159.105C45.5736 158.879 45.582 158.652 45.6071 158.426C45.951 154.886 48.9704 152.102 52.6273 152.102C56.3345 152.102 59.3791 154.953 59.6559 158.551C59.6726 158.736 59.681 158.912 59.681 159.097C59.681 162.963 56.519 166.1 52.6273 166.1Z" fill="black"/>
<path fill-rule="evenodd" clip-rule="evenodd" d="M56.474 160.782C56.2644 160.682 55.2579 160.187 55.065 160.12C54.8721 160.053 54.7378 160.019 54.6036 160.221C54.4694 160.422 54.0669 160.883 53.9495 161.017C53.8236 161.152 53.7062 161.168 53.5049 161.068C53.3036 160.967 52.6327 160.757 51.8526 160.053C51.2404 159.516 50.8294 158.845 50.712 158.644C50.5946 158.442 50.7036 158.333 50.8042 158.224C50.8965 158.132 51.0055 157.981 51.1145 157.864C51.1397 157.83 51.1648 157.797 51.19 157.763C51.2403 157.688 51.2739 157.62 51.3158 157.52C51.3829 157.386 51.3494 157.268 51.299 157.159C51.2487 157.059 50.8378 156.052 50.6617 155.641C50.4939 155.23 50.3177 155.306 50.2003 155.306C50.0829 155.306 49.9487 155.289 49.8061 155.289C49.6636 155.289 49.4455 155.339 49.2525 155.54C49.068 155.742 48.5312 156.237 48.5312 157.243C48.5312 157.478 48.5732 157.713 48.6403 157.939C48.85 158.66 49.2945 159.248 49.3784 159.357C49.479 159.491 50.8042 161.621 52.8926 162.443C54.9895 163.257 54.9895 162.988 55.3669 162.946C55.7443 162.913 56.583 162.452 56.7508 161.973C56.9269 161.495 56.9269 161.093 56.8766 161.001C56.8179 160.933 56.6753 160.883 56.474 160.782Z" fill="black"/>
<path d="M175.716 21.5034C167.63 21.5034 161.055 28.079 161.055 36.1644C161.055 44.2497 167.63 50.8254 175.716 50.8254C183.801 50.8254 190.377 44.2497 190.377 36.1644C190.377 28.0874 183.801 21.5034 175.716 21.5034Z" fill="white"/>
<path d="M175.716 21.5034C167.63 21.5034 161.055 28.079 161.055 36.1644C161.055 44.2497 167.63 50.8254 175.716 50.8254C183.801 50.8254 190.377 44.2497 190.377 36.1644C190.377 28.0874 183.801 21.5034 175.716 21.5034Z" stroke="black" stroke-width="1.4447" stroke-miterlimit="10" stroke-linecap="round" stroke-linejoin="round"/>
<path d="M175.656 29.1607C177.786 29.1607 178.038 29.1691 178.877 29.211C179.657 29.2445 180.076 29.3787 180.361 29.4878C180.73 29.6303 180.999 29.8065 181.275 30.0833C181.552 30.36 181.728 30.6284 181.871 30.9975C181.98 31.2826 182.114 31.702 182.148 32.482C182.19 33.3208 182.198 33.5724 182.198 35.7027C182.198 37.8331 182.19 38.0847 182.148 38.9235C182.114 39.7035 181.98 40.1228 181.871 40.408C181.728 40.7771 181.552 41.0454 181.275 41.3222C180.999 41.599 180.73 41.7751 180.361 41.9177C180.076 42.0268 179.657 42.161 178.877 42.1945C178.038 42.2364 177.786 42.2448 175.656 42.2448C173.526 42.2448 173.274 42.2364 172.435 42.1945C171.655 42.161 171.236 42.0268 170.951 41.9177C170.582 41.7751 170.313 41.599 170.037 41.3222C169.76 41.0454 169.584 40.7771 169.441 40.408C169.332 40.1312 169.198 39.7035 169.164 38.9235C169.122 38.0847 169.114 37.8331 169.114 35.7027C169.114 33.5724 169.122 33.3208 169.164 32.482C169.198 31.702 169.332 31.2826 169.441 30.9975C169.584 30.6284 169.76 30.36 170.037 30.0833C170.313 29.8065 170.582 29.6303 170.951 29.4878C171.236 29.3787 171.655 29.2445 172.435 29.211C173.274 29.1691 173.526 29.1607 175.656 29.1607ZM175.656 27.7264C173.492 27.7264 173.215 27.7348 172.368 27.7768C171.521 27.8187 170.942 27.9529 170.431 28.1458C169.902 28.3471 169.458 28.6239 169.022 29.0684C168.577 29.5129 168.309 29.9575 168.099 30.4775C167.898 30.9891 167.764 31.5678 167.73 32.4149C167.688 33.262 167.68 33.5388 167.68 35.7027C167.68 37.8667 167.688 38.1434 167.73 38.9906C167.772 39.8377 167.906 40.4164 168.099 40.928C168.3 41.4564 168.577 41.901 169.022 42.3371C169.466 42.7816 169.911 43.05 170.431 43.2597C170.934 43.4526 171.521 43.5952 172.368 43.6287C173.215 43.6707 173.492 43.6791 175.656 43.6791C177.82 43.6791 178.097 43.6707 178.944 43.6287C179.791 43.5868 180.37 43.4526 180.881 43.2597C181.41 43.0584 181.854 42.7816 182.29 42.3371C182.735 41.8926 183.003 41.448 183.213 40.928C183.406 40.4248 183.548 39.8377 183.582 38.9906C183.624 38.1434 183.632 37.8667 183.632 35.7027C183.632 33.5388 183.624 33.262 183.582 32.4149C183.54 31.5678 183.406 30.9891 183.213 30.4775C183.012 29.9491 182.735 29.5045 182.29 29.0684C181.846 28.6239 181.401 28.3555 180.881 28.1458C180.37 27.9529 179.791 27.8103 178.944 27.7768C178.088 27.7348 177.82 27.7264 175.656 27.7264Z" fill="black"/>
<path d="M175.656 31.6014C173.391 31.6014 171.562 33.4383 171.562 35.6944C171.562 37.959 173.399 39.7874 175.656 39.7874C177.92 39.7874 179.749 37.9506 179.749 35.6944C179.749 33.4383 177.92 31.6014 175.656 31.6014ZM175.656 38.3616C174.188 38.3616 172.997 37.1706 172.997 35.7028C172.997 34.235 174.188 33.0441 175.656 33.0441C177.123 33.0441 178.314 34.235 178.314 35.7028C178.314 37.1706 177.123 38.3616 175.656 38.3616Z" fill="black"/>
<path d="M180.873 31.4421C180.873 31.9705 180.445 32.3983 179.917 32.3983C179.389 32.3983 178.961 31.9705 178.961 31.4421C178.961 30.9137 179.389 30.486 179.917 30.486C180.445 30.486 180.873 30.9137 180.873 31.4421Z" fill="black"/>
<path d="M78.7705 216.431C68.169 216.431 59.5469 225.054 59.5469 235.655C59.5469 246.257 68.169 254.879 78.7705 254.879C89.3721 254.879 97.9942 246.257 97.9942 235.655C97.9942 225.054 89.3721 216.431 78.7705 216.431Z" fill="#FDFDFD"/>
<path d="M78.7705 216.431C68.169 216.431 59.5469 225.054 59.5469 235.655C59.5469 246.257 68.169 254.879 78.7705 254.879C89.3721 254.879 97.9942 246.257 97.9942 235.655C97.9942 225.054 89.3721 216.431 78.7705 216.431Z" stroke="black" stroke-width="1.4447" stroke-miterlimit="10" stroke-linecap="round" stroke-linejoin="round"/>
<path d="M75.5286 248.01H80.5023V235.555H83.9746L84.3437 231.387H80.5023C80.5023 231.387 80.5023 229.827 80.5023 229.013C80.5023 228.032 80.7036 227.637 81.6513 227.637C82.4146 227.637 84.3437 227.637 84.3437 227.637V223.31C84.3437 223.31 81.5088 223.31 80.8965 223.31C77.1977 223.31 75.5286 224.937 75.5286 228.057C75.5286 230.774 75.5286 231.378 75.5286 231.378H72.9453V235.597H75.5286V248.01Z" fill="black"/>
<path d="M66.9104 94.9173C60.5277 94.9173 55.3359 100.109 55.3359 106.492C55.3359 112.874 60.5277 118.066 66.9104 118.066C73.2932 118.066 78.4849 112.874 78.4849 106.492C78.4933 100.117 73.2932 94.9173 66.9104 94.9173Z" fill="#FDFDFD"/>
<path d="M66.9104 94.9173C60.5277 94.9173 55.3359 100.109 55.3359 106.492C55.3359 112.874 60.5277 118.066 66.9104 118.066C73.2932 118.066 78.4849 112.874 78.4849 106.492C78.4933 100.117 73.2932 94.9173 66.9104 94.9173Z" stroke="black" stroke-width="1.4447" stroke-miterlimit="10" stroke-linecap="round" stroke-linejoin="round"/>
<path d="M72.4227 102.667C73.0182 102.306 73.4795 101.745 73.6976 101.065C73.1356 101.401 72.5233 101.635 71.8608 101.77C71.3324 101.208 70.5775 100.855 69.7472 100.855C67.8768 100.855 66.5097 102.6 66.929 104.412C64.5219 104.294 62.3915 103.137 60.9657 101.392C60.2108 102.692 60.5715 104.395 61.8631 105.259C61.385 105.242 60.9405 105.116 60.5547 104.898C60.5212 106.24 61.4857 107.49 62.878 107.775C62.467 107.884 62.0225 107.909 61.5696 107.825C61.9386 108.974 63.0038 109.813 64.2703 109.838C63.0541 110.794 61.5192 111.214 59.9844 111.038C61.2676 111.86 62.7857 112.338 64.4212 112.338C69.7891 112.338 72.8253 107.8 72.6492 103.732C73.2111 103.321 73.706 102.818 74.0918 102.231C73.5718 102.441 73.0098 102.592 72.4227 102.667Z" fill="black"/>
<path d="M219.846 62.0473C214.16 62.0473 209.547 57.4343 209.547 51.7477C209.547 46.0611 214.16 41.4481 219.846 41.4481C225.533 41.4481 230.146 46.0611 230.146 51.7477C230.146 57.4343 225.533 62.0473 219.846 62.0473Z" fill="white"/>
<path d="M219.846 62.0473C214.16 62.0473 209.547 57.4343 209.547 51.7477C209.547 46.0611 214.16 41.4481 219.846 41.4481C225.533 41.4481 230.146 46.0611 230.146 51.7477C230.146 57.4343 225.533 62.0473 219.846 62.0473Z" stroke="black" stroke-width="1.2364" stroke-miterlimit="10" stroke-linecap="round" stroke-linejoin="round"/>
<path fill-rule="evenodd" clip-rule="evenodd" d="M225.809 54.7671C225.809 54.7587 225.801 54.7587 225.801 54.7587C225.658 54.6665 225.507 54.6497 225.415 54.6162H225.407C224.778 54.4149 224.232 53.9871 223.821 53.4587C223.595 53.1652 223.402 52.8464 223.276 52.511C223.276 52.511 223.276 52.5109 223.276 52.5026C223.226 52.36 223.226 52.1922 223.293 52.1C223.41 51.9406 223.62 51.8316 223.838 51.7561C224.09 51.6722 224.358 51.5716 224.576 51.3787C224.576 51.3787 224.576 51.3787 224.585 51.3787C224.618 51.3451 224.66 51.3032 224.694 51.2445C224.702 51.2277 224.71 51.2109 224.71 51.1941C224.727 51.1354 224.727 51.06 224.694 51.0012C224.627 50.8754 224.518 50.7999 224.434 50.758C224.3 50.6741 224.132 50.6741 223.989 50.7161C223.838 50.758 223.712 50.8167 223.595 50.8335H223.587C223.427 50.8587 223.268 50.867 223.142 50.8251C223.142 50.8083 223.142 50.7748 223.134 50.7245C223.125 50.4561 223.15 50.1793 223.15 49.8941C223.167 49.458 223.184 49.0135 223.117 48.5522V48.5438C222.974 47.7805 222.488 47.1179 221.859 46.6818C221.406 46.3631 220.869 46.1869 220.324 46.1366C220.139 46.1198 219.955 46.1115 219.77 46.1115C219.032 46.1198 218.269 46.3127 217.674 46.774C217.229 47.1263 216.877 47.5876 216.65 48.1076C216.441 48.636 216.457 49.2064 216.483 49.7348C216.499 50.1038 216.541 50.4644 216.508 50.7999C216.508 50.8083 216.508 50.8167 216.499 50.8251C216.332 50.8587 216.155 50.8419 215.971 50.8083C215.845 50.7916 215.719 50.7412 215.568 50.6993H215.56C215.417 50.6657 215.275 50.7077 215.166 50.7916H215.157C215.157 50.7916 215.149 50.7916 215.149 50.7999C215.057 50.8587 214.939 50.9509 214.931 51.1187C214.931 51.127 214.931 51.1354 214.931 51.1522C214.948 51.2529 215.006 51.32 215.065 51.3703C215.124 51.4206 215.174 51.4458 215.199 51.4709C215.199 51.4709 215.208 51.4709 215.208 51.4793C215.476 51.6554 215.77 51.7393 216.03 51.84C216.206 51.9155 216.365 52.0413 216.399 52.1922C216.441 52.3851 216.357 52.6116 216.256 52.8213C215.963 53.3916 215.535 53.8865 215.006 54.2555C214.73 54.4484 214.411 54.591 214.084 54.6749C214.084 54.6749 214.075 54.6749 214.067 54.6833C214 54.7084 213.841 54.7252 213.74 54.8762C213.732 54.8846 213.732 54.9013 213.723 54.9097C213.69 55.002 213.732 55.111 213.773 55.1697C213.815 55.22 213.866 55.2536 213.916 55.2787H213.924C214.201 55.4381 214.503 55.5052 214.772 55.5723C214.973 55.6142 215.157 55.6394 215.3 55.7065C215.308 55.7149 215.325 55.7652 215.359 55.8491C215.409 56.0001 215.434 56.1762 215.484 56.3607C215.501 56.411 215.543 56.453 215.602 56.4614C215.728 56.4865 215.795 56.4446 215.803 56.4446C215.812 56.4446 215.812 56.4446 215.82 56.4446C216.281 56.3607 216.743 56.2936 217.162 56.3943C217.606 56.5117 217.992 56.8136 218.428 57.0736C218.714 57.2498 219.049 57.4259 219.435 57.4427C219.728 57.4594 220.005 57.4427 220.29 57.4259C220.29 57.4259 220.29 57.4259 220.299 57.4259C220.534 57.4007 220.768 57.3253 220.97 57.1994L220.978 57.1911C221.431 56.931 221.834 56.6207 222.287 56.4278C222.429 56.3775 222.614 56.3775 222.807 56.3691H222.815C223.184 56.3607 223.553 56.3775 223.914 56.4278C223.922 56.4278 223.939 56.4278 223.947 56.4278C223.998 56.4194 224.048 56.3859 224.073 56.3607C224.098 56.3272 224.107 56.302 224.115 56.2852C224.123 56.2517 224.132 56.2349 224.115 56.2601C224.123 56.2517 224.123 56.2433 224.132 56.2265C224.199 56.0084 224.232 55.8072 224.341 55.6813C224.392 55.631 224.476 55.6142 224.568 55.6142C224.576 55.6142 224.585 55.6142 224.585 55.6142C224.903 55.5807 225.189 55.4633 225.457 55.371H225.465C225.566 55.3291 225.717 55.2788 225.818 55.1362C225.977 55.002 225.935 54.8426 225.809 54.7671Z" fill="black"/>
<path d="M285.688 189.09L293.295 175.116L292.288 162.896L291.064 156.849L307.838 149.669L310.984 150.919L311.713 155.666L313.089 155.524L315.085 156.312L316.461 158.593L316.544 161.235L317.903 162.124C317.903 162.124 319.589 163.726 319.606 163.852C319.623 163.978 320.587 165.756 319.966 167.568C319.346 169.379 319.539 171.753 317.064 172.86C314.59 173.959 312.208 174.672 310.807 176.081C309.407 177.49 308.761 178.144 308.476 178.236C308.191 178.329 308.191 178.329 308.191 178.329L304.618 180.451L297.908 196.697L285.688 189.09Z" fill="white"/>
<path d="M303.086 128.86L311.935 123.291C315.784 120.867 320.875 122.092 323.199 125.992C325.639 130.085 324.029 135.386 319.735 137.441L309.108 142.523" fill="white"/>
<path d="M317.704 170.864L305.903 154.114L308.898 153.242L321.227 154.827C309.812 148.076 306.658 136.761 303.538 131.091C300.41 125.422 301.064 109.377 301.064 109.377L293.75 122.981L273.226 136.988C268.454 140.242 266.902 146.574 269.628 151.665L271.314 154.811C273.839 159.524 279.316 161.831 284.449 160.338L293.54 157.696L308.99 177.255C310.801 179.528 314.089 179.947 316.421 178.211C318.467 176.685 319.164 173.925 318.082 171.61L317.704 170.864Z" fill="#FECC32"/>
<path d="M317.704 170.864L305.903 154.114L308.898 153.242L321.227 154.827C309.812 148.076 306.658 136.761 303.538 131.091C300.41 125.422 301.064 109.377 301.064 109.377L293.75 122.981L273.226 136.988C268.454 140.242 266.902 146.574 269.628 151.665L271.314 154.811C273.839 159.524 279.316 161.831 284.449 160.338L293.54 157.696L308.99 177.255C310.801 179.528 314.089 179.947 316.421 178.211C318.467 176.685 319.164 173.925 318.082 171.61L317.704 170.864Z" stroke="black" stroke-width="1.3022" stroke-miterlimit="10" stroke-linecap="round" stroke-linejoin="round"/>
<path d="M301.123 109.36C301.886 100.042 312.571 95.0931 320.044 100.721C323.986 103.69 328.373 109.092 332.952 118.343C343.545 139.697 341.642 150.013 338.832 154.71C337.221 157.402 334.177 158.845 331.057 158.577C326.461 158.182 318.593 155.465 309.921 143.555C301.056 131.402 300.443 117.596 301.123 109.36Z" stroke="black" stroke-width="1.3022" stroke-miterlimit="10" stroke-linecap="round" stroke-linejoin="round"/>
<path d="M337.43 115.357L345.154 104.042" stroke="black" stroke-width="1.3022" stroke-miterlimit="10" stroke-linecap="round" stroke-linejoin="round"/>
<path d="M353.146 114.124L340.758 120.196" stroke="black" stroke-width="1.3022" stroke-miterlimit="10" stroke-linecap="round" stroke-linejoin="round"/>
<path d="M355.592 127.669L341.828 126.369" stroke="black" stroke-width="1.3022" stroke-miterlimit="10" stroke-linecap="round" stroke-linejoin="round"/>
<path d="M303.086 128.86L311.935 123.291C315.784 120.867 320.875 122.092 323.199 125.992C325.639 130.085 324.029 135.386 319.735 137.441L309.108 142.523" stroke="black" stroke-width="1.3022" stroke-miterlimit="10" stroke-linecap="round" stroke-linejoin="round"/>
<path d="M311.833 155.373L310.986 152.311L308.621 151.573L304.453 154.089L303.471 155.272C303.211 155.591 303.371 156.069 303.773 156.161L306.122 156.681L307.891 155.641L308.386 156.689L302.75 159.415L303.698 161.202L306.583 161.797L311.037 160.321L311.892 161.848L304 165.622L304.604 166.519L305.669 167.534L308.017 167.048L313.947 164.456L314.954 166.092L308.537 168.834L308.973 169.732L311.288 170.386C311.666 170.495 312.06 170.47 312.421 170.319L316.774 168.49L318.342 170.822L318.485 170.965L320.17 167.274L319.919 164.607L317.428 161.37L316.488 160.791L316.69 158.476L314.769 156.01L311.833 155.373Z" fill="#FDFDFD"/>
<path d="M292.576 169.832L292.4 162.829L291.352 158.107L292.576 155.633L294.447 154.467L297.986 154.71L299.915 155.004L300.477 156.01L299.479 157.679L296.233 158.66L297.239 166.469L292.576 169.832Z" fill="white"/>
<path d="M286.312 188.041L293.14 175.368L292.427 163.382" stroke="black" stroke-width="1.0917" stroke-miterlimit="10" stroke-linecap="round" stroke-linejoin="round"/>
<path d="M316.391 161.202C318.546 161.403 320.307 165.245 320.064 166.503C320.215 167.643 319.024 170.638 318.06 171.627" stroke="black" stroke-width="1.0917" stroke-miterlimit="10" stroke-linecap="round" stroke-linejoin="round"/>
<path d="M298.836 194.793L304.631 180.442L309.286 177.918" stroke="black" stroke-width="1.0917" stroke-miterlimit="10" stroke-linecap="round" stroke-linejoin="round"/>
<path d="M296.633 161.462C296.633 161.462 301.757 162.93 302.487 167.501C303.217 172.072 302.076 174.773 302.076 174.773" fill="white"/>
<path d="M296.633 161.462C296.633 161.462 301.757 162.93 302.487 167.501C303.217 172.072 302.076 174.773 302.076 174.773" stroke="black" stroke-width="1.0917" stroke-miterlimit="10" stroke-linecap="round" stroke-linejoin="round"/>
<path d="M292.467 163.55C292.258 163.181 291.864 161.26 291.553 159.608C291.26 158.065 291.822 156.488 293.013 155.465L293.969 154.643L299.244 154.802C300.226 154.836 300.838 155.876 300.377 156.74C300.377 156.74 298.649 159.063 295.328 158.602" stroke="black" stroke-width="0.9683" stroke-miterlimit="10" stroke-linecap="round" stroke-linejoin="round"/>
<path d="M296.266 159.34L296.903 163.743" stroke="black" stroke-width="0.9683" stroke-miterlimit="10" stroke-linecap="round" stroke-linejoin="round"/>
<path d="M316.389 161.202C316.783 160.011 316.674 158.937 316.338 158.023C315.558 155.926 313.101 154.987 311.046 155.876L306.651 157.771L302.852 159.566C302.852 159.566 303.187 162.888 307.423 161.546L311.927 159.851" stroke="black" stroke-width="0.9683" stroke-miterlimit="10" stroke-linecap="round" stroke-linejoin="round"/>
<path d="M316.428 161.151C316.067 161.252 311.949 161.864 311.949 161.864L304.031 165.68C304.031 165.68 304.467 168.809 308.544 166.829C310.33 165.966 314.582 164.154 314.582 164.154" stroke="black" stroke-width="0.9683" stroke-miterlimit="10" stroke-linecap="round" stroke-linejoin="round"/>
<path d="M316.992 168.457L312.655 170.151C312.169 170.344 311.64 170.419 311.12 170.394C310.038 170.327 308.403 170.042 308.73 168.876L314.92 165.898L317.352 166.301" stroke="black" stroke-width="0.9683" stroke-miterlimit="10" stroke-linecap="round" stroke-linejoin="round"/>
<path d="M311.737 155.574L311.553 153.897C311.435 152.454 310.06 151.456 308.651 151.791C307.107 152.16 305.707 152.974 304.625 154.131L303.585 155.247C303.299 155.549 303.425 156.052 303.82 156.178C304.709 156.471 306.193 156.74 307.418 155.951" stroke="black" stroke-width="0.9683" stroke-miterlimit="10" stroke-linecap="round" stroke-linejoin="round"/>
<path d="M203.399 165.463L203.81 184.175L200.766 185.123L211.392 202.107L229.559 196.261L228.435 187.966L226.456 185.29L224.049 183.68L222.069 168.751L203.399 165.463Z" fill="white"/>
<path d="M249.727 111.272C246.616 101.862 237.457 95.1101 230.755 94.2546C224.985 93.5165 222.745 96.1082 220.582 98.6076C218.292 101.25 215.927 103.984 209.057 103.338C195.462 102.072 187.385 114.418 185.489 122.503C184.592 126.369 183.535 127.326 181.941 128.768C180.792 129.808 179.358 131.108 177.622 133.834C175.491 137.181 174.854 141.098 175.827 144.872C176.875 148.915 179.744 152.395 183.904 154.651C188.735 157.277 188.039 159.961 187.427 162.326C187.007 163.936 186.579 165.614 188.265 166.738C189.44 167.442 190.891 167.719 192.4 167.719C196.141 167.719 200.217 166.016 201.165 164.917C201.182 164.892 201.199 164.876 201.215 164.85C201.786 165.446 202.356 166.008 202.951 166.519L203.304 184.275C203.312 184.552 203.539 184.77 203.815 184.77H203.824C204.101 184.762 204.327 184.535 204.319 184.25L203.983 167.006C205.09 169.212 209.586 176.274 222.804 178.438L223.509 183.931C223.542 184.191 223.76 184.376 224.012 184.376C224.037 184.376 224.054 184.376 224.079 184.376C224.356 184.342 224.557 184.082 224.515 183.806L223.224 173.716C223.224 173.691 223.207 173.674 223.207 173.649C224.935 172.416 234.84 164.314 235.536 162.787L235.687 162.468C235.788 162.259 235.88 162.057 235.981 161.848C237.264 159.113 242.17 150.961 241.08 137.567C251.916 127.049 251.774 117.462 249.727 111.272Z" fill="white"/>
<path d="M203.814 184.267L203.453 166.041" stroke="black" stroke-width="1.2112" stroke-miterlimit="10" stroke-linecap="round" stroke-linejoin="round"/>
<path d="M224.01 183.881L222.719 173.783" stroke="black" stroke-width="1.2112" stroke-miterlimit="10" stroke-linecap="round" stroke-linejoin="round"/>
<path d="M196.532 156.538C196.532 156.538 198.168 161.906 203.771 166.561C206.933 169.195 211.369 171.594 217.492 172.675C218.884 172.919 220.184 173.07 221.409 173.128C230.442 173.455 249.171 152.21 237.437 128.927C223.154 128.063 221.51 131.058 203.477 125.648C203.594 127.216 203.72 128.768 203.771 130.278C203.838 132.417 202.412 134.32 200.34 134.891L197.849 135.57C196.675 135.889 195.845 136.946 195.803 138.162L195.551 146.406C195.551 146.406 188.313 147.346 190.007 153.712C191.743 160.246 197.413 158.124 197.413 158.124" stroke="black" stroke-width="1.2112" stroke-miterlimit="10" stroke-linecap="round" stroke-linejoin="round"/>
<path d="M223.307 178.53C208.571 176.291 204.402 168.012 203.773 166.561C206.935 169.195 211.372 171.594 217.495 172.676C218.887 172.919 220.187 173.07 221.412 173.129L222.527 173.766L223.307 178.53Z" fill="black"/>
<path d="M220.141 147.531L220.635 152.764" stroke="black" stroke-width="1.2112" stroke-miterlimit="10" stroke-linecap="round" stroke-linejoin="round"/>
<path d="M230.449 138.237C230.248 137.902 229.778 137.533 229.317 137.223C228.134 136.443 226.566 136.501 225.459 137.399C225.409 137.441 225.375 137.466 225.375 137.466" stroke="black" stroke-width="1.2112" stroke-miterlimit="10" stroke-linecap="round" stroke-linejoin="round"/>
<path d="M206.75 139.152C206.842 138.774 207.186 138.288 207.547 137.852C208.453 136.761 209.979 136.376 211.288 136.912C211.355 136.937 211.388 136.954 211.388 136.954" stroke="black" stroke-width="1.2112" stroke-miterlimit="10" stroke-linecap="round" stroke-linejoin="round"/>
<path d="M211.036 146.159C211.969 146.043 212.588 144.849 212.419 143.493C212.25 142.137 211.357 141.132 210.424 141.249C209.491 141.365 208.871 142.559 209.04 143.915C209.209 145.271 210.103 146.275 211.036 146.159Z" fill="black"/>
<path d="M227.273 145.484C228.213 145.484 228.976 144.376 228.976 143.01C228.976 141.643 228.213 140.536 227.273 140.536C226.333 140.536 225.57 141.643 225.57 143.01C225.57 144.376 226.333 145.484 227.273 145.484Z" fill="black"/>
<path d="M240.507 137.365C262.431 116.288 242.092 96.259 230.685 94.7996C219.279 93.3402 222.751 105.175 209.004 103.883C195.249 102.6 187.642 115.726 186.04 122.612C184.429 129.498 182.198 127.686 178.105 134.119C174.012 140.552 175.64 149.51 184.186 154.148C192.733 158.795 185.142 163.961 188.564 166.251C193.035 168.926 201.565 165.001 200.869 164.129" stroke="black" stroke-width="1.328" stroke-miterlimit="10" stroke-linecap="round" stroke-linejoin="round"/>
<path d="M213.568 160.606C213.358 159.944 214.331 159.323 215.162 159.223C215.992 159.122 223.842 158.686 224.58 158.77C225.319 158.845 225.579 160.07 225.218 160.615C224.857 161.16 223.364 163.743 221.561 164.02C219.758 164.297 217.451 164.045 216.621 163.584C215.782 163.106 214.214 162.67 213.568 160.606Z" stroke="black" stroke-width="1.2112" stroke-miterlimit="10" stroke-linecap="round" stroke-linejoin="round"/>
<path d="M301.087 196.007L301.096 195.973L282.407 185.826L272.601 199.922L269.911 203.569L262.643 213.414C257.769 191.163 224.938 183.877 224.938 183.877L214.644 199.194L201.073 185.023C201.073 185.023 160.905 193.087 164.191 222.29L164.216 223.628C164.3 228.221 164.536 232.805 164.914 237.38L168.258 277.307C174.695 276.981 186.359 275.743 193.686 275.216C199.165 274.814 204.812 274.354 210.476 273.827C211.518 273.927 212.56 273.727 213.602 273.526C214.619 273.426 215.644 273.325 216.661 273.225C222.862 272.572 226.87 272.087 233.4 271.259L238.055 270.707C238.055 270.707 238.215 270.573 238.5 270.314C239.794 270.163 241.097 270.013 242.383 269.854L242.24 269.988L244.29 269.611C245.609 269.444 246.92 269.276 248.223 269.101C249.904 268.875 251.559 268.641 253.206 268.39C256.492 267.905 259.693 267.386 262.786 266.834L264.836 266.457C267.601 265.947 270.264 265.403 272.802 264.835C273.054 264.776 273.306 264.726 273.55 264.676C303.591 237.891 301.163 197.169 301.087 196.007Z" fill="#FECC32"/>
<path d="M263.391 223.635C266.835 240.631 264.758 258.422 264.758 258.422" stroke="black" stroke-width="1.2112" stroke-miterlimit="10" stroke-linecap="round" stroke-linejoin="round"/>
<path d="M195.805 233.574L202.762 273.331" stroke="black" stroke-width="1.2112" stroke-miterlimit="10" stroke-linecap="round" stroke-linejoin="round"/>
</svg>
