<svg width="363" height="261" viewBox="0 0 363 261" fill="none" xmlns="http://www.w3.org/2000/svg">
<path d="M321.545 257.921C321.545 257.921 398.908 81.5394 340.996 40.3845C294.798 7.5519 254.268 65.0149 204.823 24.9904C141.034 -26.6356 92.6792 7.92873 58.1148 72.1907C32.1775 120.417 18.4431 151.614 5.43031 189.169C-14.8305 247.658 28.1285 261 28.1285 261L321.545 257.921Z" fill="#F3F9F2"/>
<path d="M158.867 151.157C165.145 143.388 171.928 142.065 180.523 137.768C189.118 133.47 188.621 127.521 187.298 120.249C185.975 112.977 185.975 105.208 189.447 100.91C192.918 96.6128 195.813 95.2097 199.942 94.464C202.227 94.0551 206.637 95.1215 210.437 93.3095C213.628 91.7861 218.92 82.7983 220.531 79.952C221.077 78.9979 221.734 78.0999 222.512 77.3222C225.607 74.2113 233.785 68.3904 249.78 71.4853C271.099 75.6144 275.196 87.7692 275.196 87.7692L275.068 87.8414C285.531 93.1973 297.678 104.799 297.221 126.198C296.82 144.904 277.778 152.777 274.459 154.012C273.665 154.308 272.935 154.773 272.382 155.423C271.147 156.866 269.961 159.792 271.981 165.317C275.974 176.237 269.447 184.27 269.447 184.27L191.772 218.338L158.867 151.157Z" fill="#FDFDFD"/>
<path d="M134.339 104.711L128.198 111.366L125.079 118.686L120.886 128.612L118.785 133.19L109.316 145.393L105.123 153.892C105.123 153.892 87.7244 154.509 87.0028 154.196C86.2893 153.892 77.1731 150.203 77.1731 150.203L75.6016 139.901L78.6002 130.039L85.0465 116.729L104.834 109.425L130.972 94.825L134.339 104.711Z" fill="#FDFDFD"/>
<path d="M166.461 89.389C166.461 89.389 167.84 93.2455 165.307 94.9533C163.439 96.2121 161.482 95.7952 160.584 95.4905C160.127 95.3381 159.735 95.0415 159.494 94.6246C159.262 94.2077 159.133 93.6304 159.574 92.9729C160.416 91.7141 161.707 91.201 161.587 89.0042" fill="#FDFDFD"/>
<path d="M147.727 92.3635C147.727 92.3635 155.055 95.5626 159.521 102.61C162.591 107.461 161.621 108.712 160.715 109.024C160.338 109.153 159.922 109.121 159.553 108.976C158.414 108.519 154.774 106.956 152.224 104.679C150.028 102.746 148.729 101.536 148.288 101.119" fill="#FDFDFD"/>
<path d="M147.727 92.3635C147.727 92.3635 155.055 95.5626 159.521 102.61C162.591 107.461 161.621 108.712 160.715 109.024C160.338 109.153 159.922 109.121 159.553 108.976C158.414 108.519 154.774 106.956 152.224 104.679C150.028 102.746 148.729 101.536 148.288 101.119" stroke="black" stroke-width="1.2112" stroke-miterlimit="10" stroke-linecap="round" stroke-linejoin="round"/>
<path d="M146.006 88.3627C147.233 88.1622 151.57 87.6571 159.356 88.7636C168.696 90.0865 174.565 88.8438 174.565 88.8438C174.565 88.8438 181.012 87.2723 182.415 82.8064C183.818 78.3405 177.981 75.6145 177.981 75.6145C177.981 75.6145 157.263 64.2694 145.918 61.6236C134.573 58.9777 124.543 69.4489 124.543 69.4489C124.543 69.4489 120.911 72.8805 115.9 77.5949C110.993 82.2131 104.755 88.066 99.3029 93.1412C88.2866 103.388 89.7699 105.537 81.0947 124.466C80.8863 124.923 80.6858 125.372 80.4854 125.829C79.6916 127.658 78.97 129.526 78.3125 131.418" fill="#FDFDFD"/>
<path d="M114.688 155.936C114.688 156.088 119.651 167.345 119.651 167.345L134.956 166.118L134.082 164.074L130.242 158.75L117.654 154.813L114.688 155.936Z" fill="#FDFDFD"/>
<path d="M269.109 184.271C269.109 184.271 275.636 176.237 271.643 165.317C269.622 159.792 270.809 156.866 272.044 155.423C272.597 154.773 273.319 154.308 274.12 154.012C277.44 152.777 296.474 144.904 296.883 126.198C297.412 101.648 281.344 89.9983 270.272 85.8691" stroke="black" stroke-width="1.2112" stroke-miterlimit="10" stroke-linecap="round" stroke-linejoin="round"/>
<path d="M274.852 87.7693C274.852 87.7693 270.755 75.6224 249.436 71.4853C233.441 68.3824 225.263 74.2113 222.168 77.3222C221.39 78.0999 220.733 78.9979 220.188 79.952C218.576 82.7903 213.284 91.7781 210.093 93.3095C206.293 95.1295 201.883 94.0552 199.598 94.4641C195.469 95.2097 192.575 96.6128 189.103 100.91C185.631 105.208 185.631 112.977 186.954 120.249C188.277 127.521 188.774 133.47 180.179 137.768C171.584 142.065 164.809 143.388 158.523 151.157" stroke="black" stroke-width="1.2112" stroke-miterlimit="10" stroke-linecap="round" stroke-linejoin="round"/>
<path d="M256.438 165.421L258.53 148.127" stroke="black" stroke-width="1.2112" stroke-miterlimit="10" stroke-linecap="round" stroke-linejoin="round"/>
<path d="M237.266 163.112L239.47 153.635" stroke="black" stroke-width="1.2112" stroke-miterlimit="10" stroke-linecap="round" stroke-linejoin="round"/>
<path d="M272.856 131.265C258.641 126.198 259.523 114.741 265.913 97.8796C252.138 107.581 243.439 110.115 229.769 109.561C220.043 125.861 224.068 139.54 225.055 142.322C225.167 142.635 225.271 142.939 225.383 143.252C226.025 145.112 229.304 152.577 240.761 153.138C241.932 153.194 243.183 153.186 244.53 153.082C250.455 152.641 254.905 150.781 258.168 148.584C263.949 144.695 266.017 139.748 266.017 139.748" stroke="black" stroke-width="1.2112" stroke-miterlimit="10" stroke-linecap="round" stroke-linejoin="round"/>
<path d="M265.031 141.183C265.031 141.183 271.694 145.946 274.893 140.325C278.092 134.705 270.539 130.929 270.539 130.929" stroke="black" stroke-width="1.2112" stroke-miterlimit="10" stroke-linecap="round" stroke-linejoin="round"/>
<path d="M90.2621 127.104L98.7769 130.328L106.546 135.122L100.429 128.508C90.8394 124.787 94.0064 120.794 94.0064 120.794L103.924 125.862L112.078 132.476L108.879 126.744C101.824 122.005 104.694 118.036 104.694 118.036L112.407 124.314L118.468 133.021L127.392 154.838L134.335 164.483L103.235 139.748C103.235 139.748 95.8825 134.208 92.0741 132.059C88.2737 129.919 90.2621 127.104 90.2621 127.104Z" fill="#FDFDFD"/>
<path d="M89.8472 132.973C90.673 131.819 93.9523 130.528 93.9523 130.528L132.365 161.533L115.616 157.981L112.12 156.738C101.978 152.304 99.5968 143.052 99.5968 143.052L91.6592 136.437C91.6672 136.445 89.0214 134.128 89.8472 132.973Z" fill="#FDFDFD"/>
<path d="M134.339 164.491L127.396 154.846L118.472 133.029L112.411 124.322L104.698 118.044C104.698 118.044 101.835 122.013 108.883 126.752L112.082 132.484L103.928 125.87L94.0101 120.802C94.0101 120.802 90.8431 124.795 100.432 128.516L106.55 135.13L98.7806 130.336L90.2658 127.112C90.2658 127.112 88.2854 129.919 92.0858 132.067C95.8862 134.216 103.246 139.756 103.246 139.756" stroke="black" stroke-width="1.2112" stroke-miterlimit="10" stroke-linecap="round" stroke-linejoin="round"/>
<path d="M92.0761 132.067C92.0761 132.067 90.673 131.819 89.8472 132.973C89.0214 134.128 91.6672 136.445 91.6672 136.445L99.6048 143.06C99.6048 143.06 102.499 154.301 115.472 157.933L118.527 164.627" stroke="black" stroke-width="1.2112" stroke-miterlimit="10" stroke-linecap="round" stroke-linejoin="round"/>
<path d="M148.863 146.443L141.094 133.302L141.342 120.578" stroke="black" stroke-width="1.2112" stroke-miterlimit="10" stroke-linecap="round" stroke-linejoin="round"/>
<path d="M135.888 154.132L129.442 140.414L124.398 137.928" stroke="black" stroke-width="1.2112" stroke-miterlimit="10" stroke-linecap="round" stroke-linejoin="round"/>
<path d="M136.221 118.589C136.221 118.589 131.426 120.49 130.849 125.364C130.272 130.239 131.595 133.053 131.595 133.053" stroke="black" stroke-width="1.2112" stroke-miterlimit="10" stroke-linecap="round" stroke-linejoin="round"/>
<path d="M105.75 152.617C102.647 158.446 101.645 163.481 102.751 169.831C104.483 179.829 105.894 183.469 102.254 184.792C98.6139 186.115 94.9017 174.128 94.9017 174.128L90.6844 161.316C90.6844 161.316 88.0385 157.596 83.741 155.695C79.4435 153.795 77.375 148.921 77.375 148.921" fill="#FDFDFD"/>
<path d="M105.75 152.617C102.647 158.446 101.645 163.481 102.751 169.831C104.483 179.829 105.894 183.469 102.254 184.792C98.6139 186.115 94.9017 174.128 94.9017 174.128L90.6844 161.316C90.6844 161.316 88.0385 157.596 83.741 155.695C79.4435 153.795 77.375 148.921 77.375 148.921" stroke="black" stroke-width="1.2112" stroke-miterlimit="10" stroke-linecap="round" stroke-linejoin="round"/>
<path d="M138.077 89.2365C138.077 89.2365 155.067 117.555 152.894 123.857C152.413 125.26 150.681 125.749 149.454 124.907C145.678 122.326 140.763 112.56 140.763 112.56C140.763 112.56 136.795 105.697 132.746 107.188C128.697 108.679 126.219 115.615 126.219 115.615C126.219 115.615 123.678 123.905 118.57 133.037" fill="#FDFDFD"/>
<path d="M118.562 133.037C123.67 123.905 126.211 115.615 126.211 115.615C126.211 115.615 128.689 108.672 132.738 107.188C136.787 105.697 140.755 112.56 140.755 112.56C140.755 112.56 145.662 122.326 149.447 124.907C150.673 125.741 152.357 125.244 152.886 123.857C154.915 118.557 146.192 104.727 146.192 104.727" stroke="black" stroke-width="1.2112" stroke-miterlimit="10" stroke-linecap="round" stroke-linejoin="round"/>
<path d="M76.1349 138.61C72.1661 153.667 71.8054 168.179 71.6771 171.819C71.5087 176.614 71.0677 179.227 72.9198 179.42C75.0525 179.644 76.6401 177.808 77.6743 176.197C78.5884 174.778 79.1656 173.174 79.4543 171.506L80.5286 165.285C81.8515 157.596 84.7459 156.112 84.7459 156.112" fill="#FDFDFD"/>
<path d="M76.1349 138.61C72.1661 153.667 71.8054 168.179 71.6771 171.819C71.5087 176.614 71.0677 179.227 72.9198 179.42C75.0525 179.644 76.6401 177.808 77.6743 176.197C78.5884 174.778 79.1656 173.174 79.4543 171.506L80.5286 165.285C81.8515 157.596 84.7459 156.112 84.7459 156.112" stroke="black" stroke-width="1.2112" stroke-miterlimit="10" stroke-linecap="round" stroke-linejoin="round"/>
<path d="M146.006 88.3627C147.233 88.1622 151.57 87.6571 159.356 88.7636C168.696 90.0865 174.565 88.8438 174.565 88.8438C174.565 88.8438 181.012 87.2723 182.415 82.8064C183.818 78.3405 177.981 75.6145 177.981 75.6145C177.981 75.6145 157.263 64.2694 145.918 61.6236C134.573 58.9777 124.543 69.4489 124.543 69.4489C124.543 69.4489 120.911 72.8805 115.9 77.5949C110.993 82.2131 104.755 88.066 99.3029 93.1412C88.2866 103.388 89.7699 105.537 81.0947 124.466C80.8863 124.923 80.6858 125.372 80.4854 125.829C79.6916 127.658 78.97 129.526 78.3125 131.418" stroke="black" stroke-width="1.2112" stroke-miterlimit="10" stroke-linecap="round" stroke-linejoin="round"/>
<path d="M144.313 71.1567C144.313 71.1567 140.841 76.9455 146.63 89.9984C152.419 103.059 143.824 105.865 143.824 105.865C143.824 105.865 135.886 109.505 130.683 100.245C125.479 90.9926 132.831 74.3799 132.831 74.3799" fill="#FDFDFD"/>
<path d="M144.313 71.1567C144.313 71.1567 140.841 76.9455 146.63 89.9984C152.419 103.059 143.824 105.865 143.824 105.865C143.824 105.865 135.886 109.505 130.683 100.245C125.479 90.9926 132.831 74.3799 132.831 74.3799" stroke="black" stroke-width="1.2112" stroke-miterlimit="10" stroke-linecap="round" stroke-linejoin="round"/>
<path d="M164.108 89.1564C162.136 88.3867 157.59 86.3261 155.305 82.8865" stroke="black" stroke-width="1.2112" stroke-miterlimit="10" stroke-linecap="round" stroke-linejoin="round"/>
<path d="M166.461 89.389C166.461 89.389 167.84 93.2455 165.307 94.9533C163.439 96.2121 161.482 95.7952 160.584 95.4905C160.127 95.3381 159.735 95.0415 159.494 94.6246C159.262 94.2077 159.133 93.6304 159.574 92.9729C160.416 91.7141 161.707 91.201 161.587 89.0042" stroke="black" stroke-width="1.2112" stroke-miterlimit="10" stroke-linecap="round" stroke-linejoin="round"/>
<path d="M164.148 89.2847C164.148 89.2847 164.477 91.1608 163.539 92.2592" stroke="black" stroke-width="1.2112" stroke-miterlimit="10" stroke-linecap="round" stroke-linejoin="round"/>
<path d="M82.9954 133.911C82.9954 133.911 74.6168 130.496 67.2405 122.117C62.7265 116.609 61.7323 117.932 61.7323 117.932C61.7323 117.932 59.311 127.521 81.7847 142.506" fill="#FDFDFD"/>
<path d="M82.9954 133.911C82.9954 133.911 74.6168 130.496 67.2405 122.117C62.7265 116.609 61.7323 117.932 61.7323 117.932C61.7323 117.932 59.311 127.521 81.7847 142.506" stroke="black" stroke-width="1.2112" stroke-miterlimit="10" stroke-linecap="round" stroke-linejoin="round"/>
<path d="M157.322 67.8533C157.322 67.8533 155.229 68.2382 154.516 69.8337" stroke="black" stroke-width="1.2112" stroke-miterlimit="10" stroke-linecap="round" stroke-linejoin="round"/>
<path d="M158.612 75.057C159.305 74.7877 159.546 73.7429 159.15 72.7234C158.754 71.7039 157.871 71.0958 157.177 71.3652C156.484 71.6346 156.243 72.6794 156.639 73.6989C157.035 74.7183 157.918 75.3264 158.612 75.057Z" stroke="black" stroke-width="1.2112" stroke-miterlimit="10" stroke-linecap="round" stroke-linejoin="round"/>
<path d="M179.137 76.8812C179.137 76.8812 176.218 76.2238 175.721 78.7012C175.224 81.1787 182.055 83.7684 182.055 83.7684C182.055 83.7684 183.154 82.7742 182.552 81.0665C181.943 79.3667 180.572 77.4344 179.137 76.8812Z" fill="black"/>
<path d="M147.785 93.7986C147.785 93.7986 146.879 96.2761 142.911 95.6988C138.942 95.1215 135.47 90.3269 133.57 89.0842C131.67 87.8415 128.695 88.1782 128.695 88.1782" stroke="black" stroke-width="1.2112" stroke-miterlimit="10" stroke-linecap="round" stroke-linejoin="round"/>
<path d="M80.4766 125.829C81.583 125.509 89.296 123.071 91.084 117.603C91.7735 115.503 93.5614 109.834 98.1877 106.194C102.814 102.562 106.783 104.542 113.894 96.9415C120.998 89.3407 116.701 77.4344 116.701 77.4344C116.701 77.4344 116.404 77.4906 115.883 77.5868C110.976 82.205 104.738 88.0579 99.2861 93.1331C88.2698 103.38 89.7531 105.529 81.0779 124.458C80.8855 124.915 80.677 125.372 80.4766 125.829Z" fill="black"/>
<path d="M238.445 158.093C252.677 157.379 257.439 149.907 258.177 148.584C254.914 150.781 250.464 152.641 244.539 153.082C243.192 153.186 241.941 153.194 240.77 153.138L239.648 153.635L238.445 158.093Z" fill="black"/>
<path d="M241.509 137.599C241.509 137.599 239.192 139.139 237.597 138.866C236.001 138.594 234.734 138.04 234.734 138.04" stroke="black" stroke-width="1.2112" stroke-miterlimit="10" stroke-linecap="round" stroke-linejoin="round"/>
<path d="M233.292 123.28L230.43 127.409" stroke="black" stroke-width="1.2112" stroke-miterlimit="10" stroke-linecap="round" stroke-linejoin="round"/>
<path d="M251.039 119.64C251.039 119.64 252.418 120.907 252.362 122.005" stroke="black" stroke-width="1.2112" stroke-miterlimit="10" stroke-linecap="round" stroke-linejoin="round"/>
<path d="M231.259 112.312C231.259 112.312 228.838 113.137 228.453 113.907" stroke="black" stroke-width="1.2112" stroke-miterlimit="10" stroke-linecap="round" stroke-linejoin="round"/>
<path d="M249.224 125.535C249.515 124.262 249.04 123.067 248.164 122.867C247.288 122.666 246.341 123.536 246.05 124.81C245.759 126.083 246.234 127.278 247.11 127.478C247.987 127.679 248.933 126.809 249.224 125.535Z" fill="black"/>
<path d="M229.358 119.614C229.603 118.544 229.371 117.578 228.84 117.456C228.309 117.335 227.68 118.104 227.435 119.175C227.191 120.246 227.423 121.212 227.954 121.333C228.485 121.454 229.113 120.685 229.358 119.614Z" fill="black"/>
<path d="M265.64 260.078C265.64 260.078 280.024 232.802 275.39 204.539C270.763 176.277 258.368 167.353 258.368 167.353L226.137 174.625L234.563 165.373C234.563 165.373 226.794 158.269 217.205 163.056C207.616 167.85 186.465 179.588 186.465 179.588L152.582 144.054L133.243 155.623L135.561 164.387L116.39 164.555C116.39 164.555 114.41 230.012 175.401 251.331L175.232 259.757L265.64 260.078Z" fill="#3AC546"/>
<path d="M168.54 202.062L145.312 166.527" stroke="black" stroke-width="1.2112" stroke-miterlimit="10" stroke-linecap="round" stroke-linejoin="round"/>
<path d="M239.689 201.901L184.398 211.306" stroke="black" stroke-width="1.2112" stroke-miterlimit="10" stroke-linecap="round" stroke-linejoin="round"/>
<path d="M162.83 163.385L152.086 172.477" stroke="black" stroke-width="1.2112" stroke-miterlimit="10" stroke-linecap="round" stroke-linejoin="round"/>
<path d="M207.453 185.369C207.453 185.369 193.567 197.933 193.406 209.502" stroke="black" stroke-width="1.2112" stroke-miterlimit="10" stroke-linecap="round" stroke-linejoin="round"/>
<path d="M187.945 183.886L189.934 193.467" stroke="black" stroke-width="1.2112" stroke-miterlimit="10" stroke-linecap="round" stroke-linejoin="round"/>
<path d="M185.312 186.195L183.82 193.964" stroke="black" stroke-width="1.2112" stroke-miterlimit="10" stroke-linecap="round" stroke-linejoin="round"/>
<path d="M152.739 179.091L118.359 200.41" stroke="black" stroke-width="1.2112" stroke-miterlimit="10" stroke-linecap="round" stroke-linejoin="round"/>
<path d="M97.9477 76.6249C97.9477 76.6249 82.8584 67.645 79.6032 63.2193C77.703 60.6375 78.152 59.3868 78.8576 58.7935C79.3306 58.3926 79.9881 58.2723 80.5894 58.4086L89.3608 60.3569C89.3608 60.3569 92.0948 52.684 95.7348 54.1111C99.3749 55.5383 100.161 67.3885 97.9477 76.6249Z" fill="#3AC546"/>
<path d="M167.459 56.8693C167.548 56.9815 167.716 56.9735 167.788 56.8613C168.574 55.6987 172.046 50.5193 172.47 48.4347C172.751 47.0636 172.35 46.6467 171.957 46.5425C171.693 46.4703 171.412 46.5425 171.196 46.7028L168.381 48.8355C168.205 48.9718 167.956 48.9638 167.788 48.8115C167.107 48.1941 165.343 46.775 164.397 47.7531C163.258 48.9558 164.99 53.6061 167.459 56.8693Z" fill="#3AC546"/>
<path d="M133.824 44.578C133.88 44.6181 133.961 44.586 133.977 44.5139C134.153 43.8324 134.907 40.8177 134.754 39.7674C134.658 39.0779 134.394 38.9496 134.193 38.9656C134.057 38.9736 133.937 39.0538 133.864 39.1741L132.902 40.6493C132.838 40.7456 132.726 40.7776 132.622 40.7375C132.197 40.5611 131.13 40.1923 130.85 40.8097C130.513 41.5634 132.117 43.4636 133.824 44.578Z" fill="#3AC546"/>
</svg>
